<svg xmlns="http://www.w3.org/2000/svg" viewBox="0 0 920 344" width="920" height="344">
  <rect width="100%" height="100%" fill="#fffdf8"/>
  <g fill="#111111">
  <circle cx="60" cy="4" r="2.35" />
  <circle cx="68" cy="4" r="2.35" />
  <circle cx="76" cy="4" r="2.35" />
  <circle cx="84" cy="4" r="2.35" />
  <circle cx="92" cy="4" r="2.35" />
  <circle cx="100" cy="4" r="2.35" />
  <circle cx="276" cy="4" r="2.35" />
  <circle cx="284" cy="4" r="2.35" />
  <circle cx="292" cy="4" r="2.35" />
  <circle cx="356" cy="4" r="2.35" />
  <circle cx="364" cy="4" r="2.35" />
  <circle cx="372" cy="4" r="2.35" />
  <circle cx="460" cy="4" r="2.35" />
  <circle cx="468" cy="4" r="2.35" />
  <circle cx="644" cy="4" r="2.35" />
  <circle cx="652" cy="4" r="2.35" />
  <circle cx="44" cy="12" r="2.35" />
  <circle cx="52" cy="12" r="2.35" />
  <circle cx="60" cy="12" r="2.35" />
  <circle cx="68" cy="12" r="2.35" />
  <circle cx="76" cy="12" r="2.35" />
  <circle cx="84" cy="12" r="2.35" />
  <circle cx="92" cy="12" r="2.35" />
  <circle cx="100" cy="12" r="2.35" />
  <circle cx="108" cy="12" r="2.35" />
  <circle cx="116" cy="12" r="2.35" />
  <circle cx="124" cy="12" r="2.35" />
  <circle cx="276" cy="12" r="2.35" />
  <circle cx="284" cy="12" r="2.35" />
  <circle cx="292" cy="12" r="2.35" />
  <circle cx="300" cy="12" r="2.35" />
  <circle cx="356" cy="12" r="2.35" />
  <circle cx="364" cy="12" r="2.35" />
  <circle cx="372" cy="12" r="2.35" />
  <circle cx="380" cy="12" r="2.35" />
  <circle cx="460" cy="12" r="2.35" />
  <circle cx="468" cy="12" r="2.35" />
  <circle cx="644" cy="12" r="2.35" />
  <circle cx="652" cy="12" r="2.35" />
  <circle cx="36" cy="20" r="2.35" />
  <circle cx="44" cy="20" r="2.35" />
  <circle cx="52" cy="20" r="2.35" />
  <circle cx="116" cy="20" r="2.35" />
  <circle cx="124" cy="20" r="2.35" />
  <circle cx="132" cy="20" r="2.35" />
  <circle cx="300" cy="20" r="2.35" />
  <circle cx="308" cy="20" r="2.35" />
  <circle cx="380" cy="20" r="2.35" />
  <circle cx="388" cy="20" r="2.35" />
  <circle cx="460" cy="20" r="2.35" />
  <circle cx="468" cy="20" r="2.35" />
  <circle cx="644" cy="20" r="2.35" />
  <circle cx="652" cy="20" r="2.35" />
  <circle cx="36" cy="28" r="2.35" />
  <circle cx="44" cy="28" r="2.35" />
  <circle cx="124" cy="28" r="2.35" />
  <circle cx="132" cy="28" r="2.35" />
  <circle cx="300" cy="28" r="2.35" />
  <circle cx="308" cy="28" r="2.35" />
  <circle cx="380" cy="28" r="2.35" />
  <circle cx="388" cy="28" r="2.35" />
  <circle cx="28" cy="36" r="2.35" />
  <circle cx="36" cy="36" r="2.35" />
  <circle cx="132" cy="36" r="2.35" />
  <circle cx="140" cy="36" r="2.35" />
  <circle cx="300" cy="36" r="2.35" />
  <circle cx="308" cy="36" r="2.35" />
  <circle cx="380" cy="36" r="2.35" />
  <circle cx="388" cy="36" r="2.35" />
  <circle cx="28" cy="44" r="2.35" />
  <circle cx="36" cy="44" r="2.35" />
  <circle cx="132" cy="44" r="2.35" />
  <circle cx="140" cy="44" r="2.35" />
  <circle cx="188" cy="44" r="2.35" />
  <circle cx="196" cy="44" r="2.35" />
  <circle cx="204" cy="44" r="2.35" />
  <circle cx="212" cy="44" r="2.35" />
  <circle cx="220" cy="44" r="2.35" />
  <circle cx="228" cy="44" r="2.35" />
  <circle cx="300" cy="44" r="2.35" />
  <circle cx="308" cy="44" r="2.35" />
  <circle cx="380" cy="44" r="2.35" />
  <circle cx="388" cy="44" r="2.35" />
  <circle cx="436" cy="44" r="2.35" />
  <circle cx="444" cy="44" r="2.35" />
  <circle cx="452" cy="44" r="2.35" />
  <circle cx="460" cy="44" r="2.35" />
  <circle cx="468" cy="44" r="2.35" />
  <circle cx="532" cy="44" r="2.35" />
  <circle cx="540" cy="44" r="2.35" />
  <circle cx="548" cy="44" r="2.35" />
  <circle cx="556" cy="44" r="2.35" />
  <circle cx="564" cy="44" r="2.35" />
  <circle cx="572" cy="44" r="2.35" />
  <circle cx="580" cy="44" r="2.35" />
  <circle cx="620" cy="44" r="2.35" />
  <circle cx="628" cy="44" r="2.35" />
  <circle cx="636" cy="44" r="2.35" />
  <circle cx="644" cy="44" r="2.35" />
  <circle cx="652" cy="44" r="2.35" />
  <circle cx="724" cy="44" r="2.35" />
  <circle cx="732" cy="44" r="2.35" />
  <circle cx="740" cy="44" r="2.35" />
  <circle cx="748" cy="44" r="2.35" />
  <circle cx="756" cy="44" r="2.35" />
  <circle cx="764" cy="44" r="2.35" />
  <circle cx="820" cy="44" r="2.35" />
  <circle cx="828" cy="44" r="2.35" />
  <circle cx="852" cy="44" r="2.35" />
  <circle cx="860" cy="44" r="2.35" />
  <circle cx="868" cy="44" r="2.35" />
  <circle cx="876" cy="44" r="2.35" />
  <circle cx="884" cy="44" r="2.35" />
  <circle cx="20" cy="52" r="2.35" />
  <circle cx="28" cy="52" r="2.35" />
  <circle cx="132" cy="52" r="2.35" />
  <circle cx="140" cy="52" r="2.35" />
  <circle cx="180" cy="52" r="2.35" />
  <circle cx="188" cy="52" r="2.35" />
  <circle cx="196" cy="52" r="2.35" />
  <circle cx="204" cy="52" r="2.35" />
  <circle cx="212" cy="52" r="2.35" />
  <circle cx="220" cy="52" r="2.35" />
  <circle cx="228" cy="52" r="2.35" />
  <circle cx="236" cy="52" r="2.35" />
  <circle cx="300" cy="52" r="2.35" />
  <circle cx="308" cy="52" r="2.35" />
  <circle cx="380" cy="52" r="2.35" />
  <circle cx="388" cy="52" r="2.35" />
  <circle cx="436" cy="52" r="2.35" />
  <circle cx="444" cy="52" r="2.35" />
  <circle cx="452" cy="52" r="2.35" />
  <circle cx="460" cy="52" r="2.35" />
  <circle cx="468" cy="52" r="2.35" />
  <circle cx="524" cy="52" r="2.35" />
  <circle cx="532" cy="52" r="2.35" />
  <circle cx="540" cy="52" r="2.35" />
  <circle cx="548" cy="52" r="2.35" />
  <circle cx="556" cy="52" r="2.35" />
  <circle cx="564" cy="52" r="2.35" />
  <circle cx="572" cy="52" r="2.35" />
  <circle cx="580" cy="52" r="2.35" />
  <circle cx="588" cy="52" r="2.35" />
  <circle cx="620" cy="52" r="2.35" />
  <circle cx="628" cy="52" r="2.35" />
  <circle cx="636" cy="52" r="2.35" />
  <circle cx="644" cy="52" r="2.35" />
  <circle cx="652" cy="52" r="2.35" />
  <circle cx="716" cy="52" r="2.35" />
  <circle cx="724" cy="52" r="2.35" />
  <circle cx="732" cy="52" r="2.35" />
  <circle cx="740" cy="52" r="2.35" />
  <circle cx="748" cy="52" r="2.35" />
  <circle cx="756" cy="52" r="2.35" />
  <circle cx="764" cy="52" r="2.35" />
  <circle cx="772" cy="52" r="2.35" />
  <circle cx="820" cy="52" r="2.35" />
  <circle cx="828" cy="52" r="2.35" />
  <circle cx="844" cy="52" r="2.35" />
  <circle cx="852" cy="52" r="2.35" />
  <circle cx="860" cy="52" r="2.35" />
  <circle cx="868" cy="52" r="2.35" />
  <circle cx="876" cy="52" r="2.35" />
  <circle cx="884" cy="52" r="2.35" />
  <circle cx="892" cy="52" r="2.35" />
  <circle cx="20" cy="60" r="2.35" />
  <circle cx="28" cy="60" r="2.35" />
  <circle cx="172" cy="60" r="2.35" />
  <circle cx="180" cy="60" r="2.35" />
  <circle cx="188" cy="60" r="2.35" />
  <circle cx="228" cy="60" r="2.35" />
  <circle cx="236" cy="60" r="2.35" />
  <circle cx="244" cy="60" r="2.35" />
  <circle cx="300" cy="60" r="2.35" />
  <circle cx="308" cy="60" r="2.35" />
  <circle cx="380" cy="60" r="2.35" />
  <circle cx="388" cy="60" r="2.35" />
  <circle cx="460" cy="60" r="2.35" />
  <circle cx="468" cy="60" r="2.35" />
  <circle cx="524" cy="60" r="2.35" />
  <circle cx="532" cy="60" r="2.35" />
  <circle cx="588" cy="60" r="2.35" />
  <circle cx="596" cy="60" r="2.35" />
  <circle cx="644" cy="60" r="2.35" />
  <circle cx="652" cy="60" r="2.35" />
  <circle cx="708" cy="60" r="2.35" />
  <circle cx="716" cy="60" r="2.35" />
  <circle cx="724" cy="60" r="2.35" />
  <circle cx="764" cy="60" r="2.35" />
  <circle cx="772" cy="60" r="2.35" />
  <circle cx="780" cy="60" r="2.35" />
  <circle cx="820" cy="60" r="2.35" />
  <circle cx="828" cy="60" r="2.35" />
  <circle cx="836" cy="60" r="2.35" />
  <circle cx="884" cy="60" r="2.35" />
  <circle cx="892" cy="60" r="2.35" />
  <circle cx="900" cy="60" r="2.35" />
  <circle cx="20" cy="68" r="2.35" />
  <circle cx="28" cy="68" r="2.35" />
  <circle cx="172" cy="68" r="2.35" />
  <circle cx="180" cy="68" r="2.35" />
  <circle cx="236" cy="68" r="2.35" />
  <circle cx="244" cy="68" r="2.35" />
  <circle cx="300" cy="68" r="2.35" />
  <circle cx="308" cy="68" r="2.35" />
  <circle cx="380" cy="68" r="2.35" />
  <circle cx="388" cy="68" r="2.35" />
  <circle cx="460" cy="68" r="2.35" />
  <circle cx="468" cy="68" r="2.35" />
  <circle cx="516" cy="68" r="2.35" />
  <circle cx="524" cy="68" r="2.35" />
  <circle cx="588" cy="68" r="2.35" />
  <circle cx="596" cy="68" r="2.35" />
  <circle cx="644" cy="68" r="2.35" />
  <circle cx="652" cy="68" r="2.35" />
  <circle cx="708" cy="68" r="2.35" />
  <circle cx="716" cy="68" r="2.35" />
  <circle cx="772" cy="68" r="2.35" />
  <circle cx="780" cy="68" r="2.35" />
  <circle cx="820" cy="68" r="2.35" />
  <circle cx="828" cy="68" r="2.35" />
  <circle cx="892" cy="68" r="2.35" />
  <circle cx="900" cy="68" r="2.35" />
  <circle cx="20" cy="76" r="2.35" />
  <circle cx="28" cy="76" r="2.35" />
  <circle cx="164" cy="76" r="2.35" />
  <circle cx="172" cy="76" r="2.35" />
  <circle cx="244" cy="76" r="2.35" />
  <circle cx="252" cy="76" r="2.35" />
  <circle cx="300" cy="76" r="2.35" />
  <circle cx="308" cy="76" r="2.35" />
  <circle cx="380" cy="76" r="2.35" />
  <circle cx="388" cy="76" r="2.35" />
  <circle cx="460" cy="76" r="2.35" />
  <circle cx="468" cy="76" r="2.35" />
  <circle cx="516" cy="76" r="2.35" />
  <circle cx="524" cy="76" r="2.35" />
  <circle cx="644" cy="76" r="2.35" />
  <circle cx="652" cy="76" r="2.35" />
  <circle cx="700" cy="76" r="2.35" />
  <circle cx="708" cy="76" r="2.35" />
  <circle cx="780" cy="76" r="2.35" />
  <circle cx="788" cy="76" r="2.35" />
  <circle cx="820" cy="76" r="2.35" />
  <circle cx="828" cy="76" r="2.35" />
  <circle cx="892" cy="76" r="2.35" />
  <circle cx="900" cy="76" r="2.35" />
  <circle cx="20" cy="84" r="2.35" />
  <circle cx="28" cy="84" r="2.35" />
  <circle cx="164" cy="84" r="2.35" />
  <circle cx="172" cy="84" r="2.35" />
  <circle cx="244" cy="84" r="2.35" />
  <circle cx="252" cy="84" r="2.35" />
  <circle cx="300" cy="84" r="2.35" />
  <circle cx="308" cy="84" r="2.35" />
  <circle cx="380" cy="84" r="2.35" />
  <circle cx="388" cy="84" r="2.35" />
  <circle cx="460" cy="84" r="2.35" />
  <circle cx="468" cy="84" r="2.35" />
  <circle cx="524" cy="84" r="2.35" />
  <circle cx="532" cy="84" r="2.35" />
  <circle cx="644" cy="84" r="2.35" />
  <circle cx="652" cy="84" r="2.35" />
  <circle cx="700" cy="84" r="2.35" />
  <circle cx="708" cy="84" r="2.35" />
  <circle cx="780" cy="84" r="2.35" />
  <circle cx="788" cy="84" r="2.35" />
  <circle cx="820" cy="84" r="2.35" />
  <circle cx="828" cy="84" r="2.35" />
  <circle cx="892" cy="84" r="2.35" />
  <circle cx="900" cy="84" r="2.35" />
  <circle cx="20" cy="92" r="2.35" />
  <circle cx="28" cy="92" r="2.35" />
  <circle cx="164" cy="92" r="2.35" />
  <circle cx="172" cy="92" r="2.35" />
  <circle cx="244" cy="92" r="2.35" />
  <circle cx="252" cy="92" r="2.35" />
  <circle cx="300" cy="92" r="2.35" />
  <circle cx="308" cy="92" r="2.35" />
  <circle cx="380" cy="92" r="2.35" />
  <circle cx="388" cy="92" r="2.35" />
  <circle cx="460" cy="92" r="2.35" />
  <circle cx="468" cy="92" r="2.35" />
  <circle cx="524" cy="92" r="2.35" />
  <circle cx="532" cy="92" r="2.35" />
  <circle cx="540" cy="92" r="2.35" />
  <circle cx="548" cy="92" r="2.35" />
  <circle cx="556" cy="92" r="2.35" />
  <circle cx="564" cy="92" r="2.35" />
  <circle cx="644" cy="92" r="2.35" />
  <circle cx="652" cy="92" r="2.35" />
  <circle cx="700" cy="92" r="2.35" />
  <circle cx="708" cy="92" r="2.35" />
  <circle cx="780" cy="92" r="2.35" />
  <circle cx="788" cy="92" r="2.35" />
  <circle cx="820" cy="92" r="2.35" />
  <circle cx="828" cy="92" r="2.35" />
  <circle cx="892" cy="92" r="2.35" />
  <circle cx="900" cy="92" r="2.35" />
  <circle cx="20" cy="100" r="2.35" />
  <circle cx="28" cy="100" r="2.35" />
  <circle cx="132" cy="100" r="2.35" />
  <circle cx="140" cy="100" r="2.35" />
  <circle cx="164" cy="100" r="2.35" />
  <circle cx="172" cy="100" r="2.35" />
  <circle cx="244" cy="100" r="2.35" />
  <circle cx="252" cy="100" r="2.35" />
  <circle cx="300" cy="100" r="2.35" />
  <circle cx="308" cy="100" r="2.35" />
  <circle cx="380" cy="100" r="2.35" />
  <circle cx="388" cy="100" r="2.35" />
  <circle cx="460" cy="100" r="2.35" />
  <circle cx="468" cy="100" r="2.35" />
  <circle cx="540" cy="100" r="2.35" />
  <circle cx="548" cy="100" r="2.35" />
  <circle cx="556" cy="100" r="2.35" />
  <circle cx="564" cy="100" r="2.35" />
  <circle cx="572" cy="100" r="2.35" />
  <circle cx="580" cy="100" r="2.35" />
  <circle cx="588" cy="100" r="2.35" />
  <circle cx="644" cy="100" r="2.35" />
  <circle cx="652" cy="100" r="2.35" />
  <circle cx="700" cy="100" r="2.35" />
  <circle cx="708" cy="100" r="2.35" />
  <circle cx="780" cy="100" r="2.35" />
  <circle cx="788" cy="100" r="2.35" />
  <circle cx="820" cy="100" r="2.35" />
  <circle cx="828" cy="100" r="2.35" />
  <circle cx="892" cy="100" r="2.35" />
  <circle cx="900" cy="100" r="2.35" />
  <circle cx="28" cy="108" r="2.35" />
  <circle cx="36" cy="108" r="2.35" />
  <circle cx="132" cy="108" r="2.35" />
  <circle cx="140" cy="108" r="2.35" />
  <circle cx="164" cy="108" r="2.35" />
  <circle cx="172" cy="108" r="2.35" />
  <circle cx="244" cy="108" r="2.35" />
  <circle cx="252" cy="108" r="2.35" />
  <circle cx="300" cy="108" r="2.35" />
  <circle cx="308" cy="108" r="2.35" />
  <circle cx="380" cy="108" r="2.35" />
  <circle cx="388" cy="108" r="2.35" />
  <circle cx="460" cy="108" r="2.35" />
  <circle cx="468" cy="108" r="2.35" />
  <circle cx="572" cy="108" r="2.35" />
  <circle cx="580" cy="108" r="2.35" />
  <circle cx="588" cy="108" r="2.35" />
  <circle cx="596" cy="108" r="2.35" />
  <circle cx="644" cy="108" r="2.35" />
  <circle cx="652" cy="108" r="2.35" />
  <circle cx="700" cy="108" r="2.35" />
  <circle cx="708" cy="108" r="2.35" />
  <circle cx="780" cy="108" r="2.35" />
  <circle cx="788" cy="108" r="2.35" />
  <circle cx="820" cy="108" r="2.35" />
  <circle cx="828" cy="108" r="2.35" />
  <circle cx="892" cy="108" r="2.35" />
  <circle cx="900" cy="108" r="2.35" />
  <circle cx="28" cy="116" r="2.35" />
  <circle cx="36" cy="116" r="2.35" />
  <circle cx="132" cy="116" r="2.35" />
  <circle cx="140" cy="116" r="2.35" />
  <circle cx="164" cy="116" r="2.35" />
  <circle cx="172" cy="116" r="2.35" />
  <circle cx="244" cy="116" r="2.35" />
  <circle cx="252" cy="116" r="2.35" />
  <circle cx="300" cy="116" r="2.35" />
  <circle cx="308" cy="116" r="2.35" />
  <circle cx="380" cy="116" r="2.35" />
  <circle cx="388" cy="116" r="2.35" />
  <circle cx="460" cy="116" r="2.35" />
  <circle cx="468" cy="116" r="2.35" />
  <circle cx="588" cy="116" r="2.35" />
  <circle cx="596" cy="116" r="2.35" />
  <circle cx="644" cy="116" r="2.35" />
  <circle cx="652" cy="116" r="2.35" />
  <circle cx="700" cy="116" r="2.35" />
  <circle cx="708" cy="116" r="2.35" />
  <circle cx="780" cy="116" r="2.35" />
  <circle cx="788" cy="116" r="2.35" />
  <circle cx="820" cy="116" r="2.35" />
  <circle cx="828" cy="116" r="2.35" />
  <circle cx="892" cy="116" r="2.35" />
  <circle cx="900" cy="116" r="2.35" />
  <circle cx="36" cy="124" r="2.35" />
  <circle cx="44" cy="124" r="2.35" />
  <circle cx="124" cy="124" r="2.35" />
  <circle cx="132" cy="124" r="2.35" />
  <circle cx="172" cy="124" r="2.35" />
  <circle cx="180" cy="124" r="2.35" />
  <circle cx="236" cy="124" r="2.35" />
  <circle cx="244" cy="124" r="2.35" />
  <circle cx="300" cy="124" r="2.35" />
  <circle cx="308" cy="124" r="2.35" />
  <circle cx="380" cy="124" r="2.35" />
  <circle cx="388" cy="124" r="2.35" />
  <circle cx="460" cy="124" r="2.35" />
  <circle cx="468" cy="124" r="2.35" />
  <circle cx="516" cy="124" r="2.35" />
  <circle cx="524" cy="124" r="2.35" />
  <circle cx="588" cy="124" r="2.35" />
  <circle cx="596" cy="124" r="2.35" />
  <circle cx="644" cy="124" r="2.35" />
  <circle cx="652" cy="124" r="2.35" />
  <circle cx="708" cy="124" r="2.35" />
  <circle cx="716" cy="124" r="2.35" />
  <circle cx="772" cy="124" r="2.35" />
  <circle cx="780" cy="124" r="2.35" />
  <circle cx="820" cy="124" r="2.35" />
  <circle cx="828" cy="124" r="2.35" />
  <circle cx="892" cy="124" r="2.35" />
  <circle cx="900" cy="124" r="2.35" />
  <circle cx="36" cy="132" r="2.35" />
  <circle cx="44" cy="132" r="2.35" />
  <circle cx="52" cy="132" r="2.35" />
  <circle cx="116" cy="132" r="2.35" />
  <circle cx="124" cy="132" r="2.35" />
  <circle cx="132" cy="132" r="2.35" />
  <circle cx="172" cy="132" r="2.35" />
  <circle cx="180" cy="132" r="2.35" />
  <circle cx="188" cy="132" r="2.35" />
  <circle cx="228" cy="132" r="2.35" />
  <circle cx="236" cy="132" r="2.35" />
  <circle cx="244" cy="132" r="2.35" />
  <circle cx="300" cy="132" r="2.35" />
  <circle cx="308" cy="132" r="2.35" />
  <circle cx="380" cy="132" r="2.35" />
  <circle cx="388" cy="132" r="2.35" />
  <circle cx="460" cy="132" r="2.35" />
  <circle cx="468" cy="132" r="2.35" />
  <circle cx="516" cy="132" r="2.35" />
  <circle cx="524" cy="132" r="2.35" />
  <circle cx="532" cy="132" r="2.35" />
  <circle cx="588" cy="132" r="2.35" />
  <circle cx="596" cy="132" r="2.35" />
  <circle cx="644" cy="132" r="2.35" />
  <circle cx="652" cy="132" r="2.35" />
  <circle cx="708" cy="132" r="2.35" />
  <circle cx="716" cy="132" r="2.35" />
  <circle cx="724" cy="132" r="2.35" />
  <circle cx="764" cy="132" r="2.35" />
  <circle cx="772" cy="132" r="2.35" />
  <circle cx="780" cy="132" r="2.35" />
  <circle cx="820" cy="132" r="2.35" />
  <circle cx="828" cy="132" r="2.35" />
  <circle cx="892" cy="132" r="2.35" />
  <circle cx="900" cy="132" r="2.35" />
  <circle cx="44" cy="140" r="2.35" />
  <circle cx="52" cy="140" r="2.35" />
  <circle cx="60" cy="140" r="2.35" />
  <circle cx="68" cy="140" r="2.35" />
  <circle cx="76" cy="140" r="2.35" />
  <circle cx="84" cy="140" r="2.35" />
  <circle cx="92" cy="140" r="2.35" />
  <circle cx="100" cy="140" r="2.35" />
  <circle cx="108" cy="140" r="2.35" />
  <circle cx="116" cy="140" r="2.35" />
  <circle cx="124" cy="140" r="2.35" />
  <circle cx="180" cy="140" r="2.35" />
  <circle cx="188" cy="140" r="2.35" />
  <circle cx="196" cy="140" r="2.35" />
  <circle cx="204" cy="140" r="2.35" />
  <circle cx="212" cy="140" r="2.35" />
  <circle cx="220" cy="140" r="2.35" />
  <circle cx="228" cy="140" r="2.35" />
  <circle cx="236" cy="140" r="2.35" />
  <circle cx="276" cy="140" r="2.35" />
  <circle cx="284" cy="140" r="2.35" />
  <circle cx="292" cy="140" r="2.35" />
  <circle cx="300" cy="140" r="2.35" />
  <circle cx="308" cy="140" r="2.35" />
  <circle cx="316" cy="140" r="2.35" />
  <circle cx="324" cy="140" r="2.35" />
  <circle cx="332" cy="140" r="2.35" />
  <circle cx="356" cy="140" r="2.35" />
  <circle cx="364" cy="140" r="2.35" />
  <circle cx="372" cy="140" r="2.35" />
  <circle cx="380" cy="140" r="2.35" />
  <circle cx="388" cy="140" r="2.35" />
  <circle cx="396" cy="140" r="2.35" />
  <circle cx="404" cy="140" r="2.35" />
  <circle cx="412" cy="140" r="2.35" />
  <circle cx="436" cy="140" r="2.35" />
  <circle cx="444" cy="140" r="2.35" />
  <circle cx="452" cy="140" r="2.35" />
  <circle cx="460" cy="140" r="2.35" />
  <circle cx="468" cy="140" r="2.35" />
  <circle cx="476" cy="140" r="2.35" />
  <circle cx="484" cy="140" r="2.35" />
  <circle cx="492" cy="140" r="2.35" />
  <circle cx="524" cy="140" r="2.35" />
  <circle cx="532" cy="140" r="2.35" />
  <circle cx="540" cy="140" r="2.35" />
  <circle cx="548" cy="140" r="2.35" />
  <circle cx="556" cy="140" r="2.35" />
  <circle cx="564" cy="140" r="2.35" />
  <circle cx="572" cy="140" r="2.35" />
  <circle cx="580" cy="140" r="2.35" />
  <circle cx="588" cy="140" r="2.35" />
  <circle cx="620" cy="140" r="2.35" />
  <circle cx="628" cy="140" r="2.35" />
  <circle cx="636" cy="140" r="2.35" />
  <circle cx="644" cy="140" r="2.35" />
  <circle cx="652" cy="140" r="2.35" />
  <circle cx="660" cy="140" r="2.35" />
  <circle cx="668" cy="140" r="2.35" />
  <circle cx="676" cy="140" r="2.35" />
  <circle cx="716" cy="140" r="2.35" />
  <circle cx="724" cy="140" r="2.35" />
  <circle cx="732" cy="140" r="2.35" />
  <circle cx="740" cy="140" r="2.35" />
  <circle cx="748" cy="140" r="2.35" />
  <circle cx="756" cy="140" r="2.35" />
  <circle cx="764" cy="140" r="2.35" />
  <circle cx="772" cy="140" r="2.35" />
  <circle cx="820" cy="140" r="2.35" />
  <circle cx="828" cy="140" r="2.35" />
  <circle cx="892" cy="140" r="2.35" />
  <circle cx="900" cy="140" r="2.35" />
  <circle cx="60" cy="148" r="2.35" />
  <circle cx="68" cy="148" r="2.35" />
  <circle cx="76" cy="148" r="2.35" />
  <circle cx="84" cy="148" r="2.35" />
  <circle cx="92" cy="148" r="2.35" />
  <circle cx="100" cy="148" r="2.35" />
  <circle cx="188" cy="148" r="2.35" />
  <circle cx="196" cy="148" r="2.35" />
  <circle cx="204" cy="148" r="2.35" />
  <circle cx="212" cy="148" r="2.35" />
  <circle cx="220" cy="148" r="2.35" />
  <circle cx="228" cy="148" r="2.35" />
  <circle cx="276" cy="148" r="2.35" />
  <circle cx="284" cy="148" r="2.35" />
  <circle cx="292" cy="148" r="2.35" />
  <circle cx="300" cy="148" r="2.35" />
  <circle cx="308" cy="148" r="2.35" />
  <circle cx="316" cy="148" r="2.35" />
  <circle cx="324" cy="148" r="2.35" />
  <circle cx="332" cy="148" r="2.35" />
  <circle cx="356" cy="148" r="2.35" />
  <circle cx="364" cy="148" r="2.35" />
  <circle cx="372" cy="148" r="2.35" />
  <circle cx="380" cy="148" r="2.35" />
  <circle cx="388" cy="148" r="2.35" />
  <circle cx="396" cy="148" r="2.35" />
  <circle cx="404" cy="148" r="2.35" />
  <circle cx="412" cy="148" r="2.35" />
  <circle cx="436" cy="148" r="2.35" />
  <circle cx="444" cy="148" r="2.35" />
  <circle cx="452" cy="148" r="2.35" />
  <circle cx="460" cy="148" r="2.35" />
  <circle cx="468" cy="148" r="2.35" />
  <circle cx="476" cy="148" r="2.35" />
  <circle cx="484" cy="148" r="2.35" />
  <circle cx="492" cy="148" r="2.35" />
  <circle cx="532" cy="148" r="2.35" />
  <circle cx="540" cy="148" r="2.35" />
  <circle cx="548" cy="148" r="2.35" />
  <circle cx="556" cy="148" r="2.35" />
  <circle cx="564" cy="148" r="2.35" />
  <circle cx="572" cy="148" r="2.35" />
  <circle cx="580" cy="148" r="2.35" />
  <circle cx="620" cy="148" r="2.35" />
  <circle cx="628" cy="148" r="2.35" />
  <circle cx="636" cy="148" r="2.35" />
  <circle cx="644" cy="148" r="2.35" />
  <circle cx="652" cy="148" r="2.35" />
  <circle cx="660" cy="148" r="2.35" />
  <circle cx="668" cy="148" r="2.35" />
  <circle cx="676" cy="148" r="2.35" />
  <circle cx="724" cy="148" r="2.35" />
  <circle cx="732" cy="148" r="2.35" />
  <circle cx="740" cy="148" r="2.35" />
  <circle cx="748" cy="148" r="2.35" />
  <circle cx="756" cy="148" r="2.35" />
  <circle cx="764" cy="148" r="2.35" />
  <circle cx="820" cy="148" r="2.35" />
  <circle cx="828" cy="148" r="2.35" />
  <circle cx="892" cy="148" r="2.35" />
  <circle cx="900" cy="148" r="2.35" />
  <circle cx="4" cy="196" r="2.35" />
  <circle cx="12" cy="196" r="2.35" />
  <circle cx="20" cy="196" r="2.35" />
  <circle cx="28" cy="196" r="2.35" />
  <circle cx="36" cy="196" r="2.35" />
  <circle cx="44" cy="196" r="2.35" />
  <circle cx="52" cy="196" r="2.35" />
  <circle cx="60" cy="196" r="2.35" />
  <circle cx="68" cy="196" r="2.35" />
  <circle cx="660" cy="196" r="2.35" />
  <circle cx="668" cy="196" r="2.35" />
  <circle cx="4" cy="204" r="2.35" />
  <circle cx="12" cy="204" r="2.35" />
  <circle cx="20" cy="204" r="2.35" />
  <circle cx="28" cy="204" r="2.35" />
  <circle cx="36" cy="204" r="2.35" />
  <circle cx="44" cy="204" r="2.35" />
  <circle cx="52" cy="204" r="2.35" />
  <circle cx="60" cy="204" r="2.35" />
  <circle cx="68" cy="204" r="2.35" />
  <circle cx="76" cy="204" r="2.35" />
  <circle cx="84" cy="204" r="2.35" />
  <circle cx="660" cy="204" r="2.35" />
  <circle cx="668" cy="204" r="2.35" />
  <circle cx="4" cy="212" r="2.35" />
  <circle cx="12" cy="212" r="2.35" />
  <circle cx="76" cy="212" r="2.35" />
  <circle cx="84" cy="212" r="2.35" />
  <circle cx="92" cy="212" r="2.35" />
  <circle cx="268" cy="212" r="2.35" />
  <circle cx="276" cy="212" r="2.35" />
  <circle cx="572" cy="212" r="2.35" />
  <circle cx="580" cy="212" r="2.35" />
  <circle cx="660" cy="212" r="2.35" />
  <circle cx="668" cy="212" r="2.35" />
  <circle cx="4" cy="220" r="2.35" />
  <circle cx="12" cy="220" r="2.35" />
  <circle cx="84" cy="220" r="2.35" />
  <circle cx="92" cy="220" r="2.35" />
  <circle cx="268" cy="220" r="2.35" />
  <circle cx="276" cy="220" r="2.35" />
  <circle cx="572" cy="220" r="2.35" />
  <circle cx="580" cy="220" r="2.35" />
  <circle cx="4" cy="228" r="2.35" />
  <circle cx="12" cy="228" r="2.35" />
  <circle cx="92" cy="228" r="2.35" />
  <circle cx="100" cy="228" r="2.35" />
  <circle cx="268" cy="228" r="2.35" />
  <circle cx="276" cy="228" r="2.35" />
  <circle cx="572" cy="228" r="2.35" />
  <circle cx="580" cy="228" r="2.35" />
  <circle cx="4" cy="236" r="2.35" />
  <circle cx="12" cy="236" r="2.35" />
  <circle cx="92" cy="236" r="2.35" />
  <circle cx="100" cy="236" r="2.35" />
  <circle cx="164" cy="236" r="2.35" />
  <circle cx="172" cy="236" r="2.35" />
  <circle cx="180" cy="236" r="2.35" />
  <circle cx="188" cy="236" r="2.35" />
  <circle cx="196" cy="236" r="2.35" />
  <circle cx="204" cy="236" r="2.35" />
  <circle cx="252" cy="236" r="2.35" />
  <circle cx="260" cy="236" r="2.35" />
  <circle cx="268" cy="236" r="2.35" />
  <circle cx="276" cy="236" r="2.35" />
  <circle cx="284" cy="236" r="2.35" />
  <circle cx="292" cy="236" r="2.35" />
  <circle cx="300" cy="236" r="2.35" />
  <circle cx="308" cy="236" r="2.35" />
  <circle cx="356" cy="236" r="2.35" />
  <circle cx="364" cy="236" r="2.35" />
  <circle cx="372" cy="236" r="2.35" />
  <circle cx="380" cy="236" r="2.35" />
  <circle cx="388" cy="236" r="2.35" />
  <circle cx="396" cy="236" r="2.35" />
  <circle cx="468" cy="236" r="2.35" />
  <circle cx="476" cy="236" r="2.35" />
  <circle cx="484" cy="236" r="2.35" />
  <circle cx="492" cy="236" r="2.35" />
  <circle cx="500" cy="236" r="2.35" />
  <circle cx="508" cy="236" r="2.35" />
  <circle cx="556" cy="236" r="2.35" />
  <circle cx="564" cy="236" r="2.35" />
  <circle cx="572" cy="236" r="2.35" />
  <circle cx="580" cy="236" r="2.35" />
  <circle cx="588" cy="236" r="2.35" />
  <circle cx="596" cy="236" r="2.35" />
  <circle cx="604" cy="236" r="2.35" />
  <circle cx="612" cy="236" r="2.35" />
  <circle cx="636" cy="236" r="2.35" />
  <circle cx="644" cy="236" r="2.35" />
  <circle cx="652" cy="236" r="2.35" />
  <circle cx="660" cy="236" r="2.35" />
  <circle cx="668" cy="236" r="2.35" />
  <circle cx="740" cy="236" r="2.35" />
  <circle cx="748" cy="236" r="2.35" />
  <circle cx="756" cy="236" r="2.35" />
  <circle cx="764" cy="236" r="2.35" />
  <circle cx="772" cy="236" r="2.35" />
  <circle cx="780" cy="236" r="2.35" />
  <circle cx="836" cy="236" r="2.35" />
  <circle cx="844" cy="236" r="2.35" />
  <circle cx="868" cy="236" r="2.35" />
  <circle cx="876" cy="236" r="2.35" />
  <circle cx="884" cy="236" r="2.35" />
  <circle cx="892" cy="236" r="2.35" />
  <circle cx="900" cy="236" r="2.35" />
  <circle cx="4" cy="244" r="2.35" />
  <circle cx="12" cy="244" r="2.35" />
  <circle cx="100" cy="244" r="2.35" />
  <circle cx="108" cy="244" r="2.35" />
  <circle cx="156" cy="244" r="2.35" />
  <circle cx="164" cy="244" r="2.35" />
  <circle cx="172" cy="244" r="2.35" />
  <circle cx="180" cy="244" r="2.35" />
  <circle cx="188" cy="244" r="2.35" />
  <circle cx="196" cy="244" r="2.35" />
  <circle cx="204" cy="244" r="2.35" />
  <circle cx="212" cy="244" r="2.35" />
  <circle cx="252" cy="244" r="2.35" />
  <circle cx="260" cy="244" r="2.35" />
  <circle cx="268" cy="244" r="2.35" />
  <circle cx="276" cy="244" r="2.35" />
  <circle cx="284" cy="244" r="2.35" />
  <circle cx="292" cy="244" r="2.35" />
  <circle cx="300" cy="244" r="2.35" />
  <circle cx="308" cy="244" r="2.35" />
  <circle cx="348" cy="244" r="2.35" />
  <circle cx="356" cy="244" r="2.35" />
  <circle cx="364" cy="244" r="2.35" />
  <circle cx="372" cy="244" r="2.35" />
  <circle cx="380" cy="244" r="2.35" />
  <circle cx="388" cy="244" r="2.35" />
  <circle cx="396" cy="244" r="2.35" />
  <circle cx="404" cy="244" r="2.35" />
  <circle cx="460" cy="244" r="2.35" />
  <circle cx="468" cy="244" r="2.35" />
  <circle cx="476" cy="244" r="2.35" />
  <circle cx="484" cy="244" r="2.35" />
  <circle cx="492" cy="244" r="2.35" />
  <circle cx="500" cy="244" r="2.35" />
  <circle cx="508" cy="244" r="2.35" />
  <circle cx="516" cy="244" r="2.35" />
  <circle cx="556" cy="244" r="2.35" />
  <circle cx="564" cy="244" r="2.35" />
  <circle cx="572" cy="244" r="2.35" />
  <circle cx="580" cy="244" r="2.35" />
  <circle cx="588" cy="244" r="2.35" />
  <circle cx="596" cy="244" r="2.35" />
  <circle cx="604" cy="244" r="2.35" />
  <circle cx="612" cy="244" r="2.35" />
  <circle cx="636" cy="244" r="2.35" />
  <circle cx="644" cy="244" r="2.35" />
  <circle cx="652" cy="244" r="2.35" />
  <circle cx="660" cy="244" r="2.35" />
  <circle cx="668" cy="244" r="2.35" />
  <circle cx="732" cy="244" r="2.35" />
  <circle cx="740" cy="244" r="2.35" />
  <circle cx="748" cy="244" r="2.35" />
  <circle cx="756" cy="244" r="2.35" />
  <circle cx="764" cy="244" r="2.35" />
  <circle cx="772" cy="244" r="2.35" />
  <circle cx="780" cy="244" r="2.35" />
  <circle cx="788" cy="244" r="2.35" />
  <circle cx="836" cy="244" r="2.35" />
  <circle cx="844" cy="244" r="2.35" />
  <circle cx="860" cy="244" r="2.35" />
  <circle cx="868" cy="244" r="2.35" />
  <circle cx="876" cy="244" r="2.35" />
  <circle cx="884" cy="244" r="2.35" />
  <circle cx="892" cy="244" r="2.35" />
  <circle cx="900" cy="244" r="2.35" />
  <circle cx="908" cy="244" r="2.35" />
  <circle cx="4" cy="252" r="2.35" />
  <circle cx="12" cy="252" r="2.35" />
  <circle cx="100" cy="252" r="2.35" />
  <circle cx="108" cy="252" r="2.35" />
  <circle cx="148" cy="252" r="2.35" />
  <circle cx="156" cy="252" r="2.35" />
  <circle cx="164" cy="252" r="2.35" />
  <circle cx="204" cy="252" r="2.35" />
  <circle cx="212" cy="252" r="2.35" />
  <circle cx="220" cy="252" r="2.35" />
  <circle cx="268" cy="252" r="2.35" />
  <circle cx="276" cy="252" r="2.35" />
  <circle cx="340" cy="252" r="2.35" />
  <circle cx="348" cy="252" r="2.35" />
  <circle cx="356" cy="252" r="2.35" />
  <circle cx="396" cy="252" r="2.35" />
  <circle cx="404" cy="252" r="2.35" />
  <circle cx="412" cy="252" r="2.35" />
  <circle cx="452" cy="252" r="2.35" />
  <circle cx="460" cy="252" r="2.35" />
  <circle cx="468" cy="252" r="2.35" />
  <circle cx="508" cy="252" r="2.35" />
  <circle cx="516" cy="252" r="2.35" />
  <circle cx="524" cy="252" r="2.35" />
  <circle cx="572" cy="252" r="2.35" />
  <circle cx="580" cy="252" r="2.35" />
  <circle cx="660" cy="252" r="2.35" />
  <circle cx="668" cy="252" r="2.35" />
  <circle cx="724" cy="252" r="2.35" />
  <circle cx="732" cy="252" r="2.35" />
  <circle cx="740" cy="252" r="2.35" />
  <circle cx="780" cy="252" r="2.35" />
  <circle cx="788" cy="252" r="2.35" />
  <circle cx="796" cy="252" r="2.35" />
  <circle cx="836" cy="252" r="2.35" />
  <circle cx="844" cy="252" r="2.35" />
  <circle cx="852" cy="252" r="2.35" />
  <circle cx="900" cy="252" r="2.35" />
  <circle cx="908" cy="252" r="2.35" />
  <circle cx="916" cy="252" r="2.35" />
  <circle cx="4" cy="260" r="2.35" />
  <circle cx="12" cy="260" r="2.35" />
  <circle cx="100" cy="260" r="2.35" />
  <circle cx="108" cy="260" r="2.35" />
  <circle cx="148" cy="260" r="2.35" />
  <circle cx="156" cy="260" r="2.35" />
  <circle cx="212" cy="260" r="2.35" />
  <circle cx="220" cy="260" r="2.35" />
  <circle cx="268" cy="260" r="2.35" />
  <circle cx="276" cy="260" r="2.35" />
  <circle cx="340" cy="260" r="2.35" />
  <circle cx="348" cy="260" r="2.35" />
  <circle cx="404" cy="260" r="2.35" />
  <circle cx="412" cy="260" r="2.35" />
  <circle cx="452" cy="260" r="2.35" />
  <circle cx="460" cy="260" r="2.35" />
  <circle cx="516" cy="260" r="2.35" />
  <circle cx="524" cy="260" r="2.35" />
  <circle cx="532" cy="260" r="2.35" />
  <circle cx="572" cy="260" r="2.35" />
  <circle cx="580" cy="260" r="2.35" />
  <circle cx="660" cy="260" r="2.35" />
  <circle cx="668" cy="260" r="2.35" />
  <circle cx="724" cy="260" r="2.35" />
  <circle cx="732" cy="260" r="2.35" />
  <circle cx="788" cy="260" r="2.35" />
  <circle cx="796" cy="260" r="2.35" />
  <circle cx="836" cy="260" r="2.35" />
  <circle cx="844" cy="260" r="2.35" />
  <circle cx="908" cy="260" r="2.35" />
  <circle cx="916" cy="260" r="2.35" />
  <circle cx="4" cy="268" r="2.35" />
  <circle cx="12" cy="268" r="2.35" />
  <circle cx="100" cy="268" r="2.35" />
  <circle cx="108" cy="268" r="2.35" />
  <circle cx="140" cy="268" r="2.35" />
  <circle cx="148" cy="268" r="2.35" />
  <circle cx="220" cy="268" r="2.35" />
  <circle cx="228" cy="268" r="2.35" />
  <circle cx="268" cy="268" r="2.35" />
  <circle cx="276" cy="268" r="2.35" />
  <circle cx="332" cy="268" r="2.35" />
  <circle cx="340" cy="268" r="2.35" />
  <circle cx="412" cy="268" r="2.35" />
  <circle cx="420" cy="268" r="2.35" />
  <circle cx="444" cy="268" r="2.35" />
  <circle cx="452" cy="268" r="2.35" />
  <circle cx="524" cy="268" r="2.35" />
  <circle cx="532" cy="268" r="2.35" />
  <circle cx="572" cy="268" r="2.35" />
  <circle cx="580" cy="268" r="2.35" />
  <circle cx="660" cy="268" r="2.35" />
  <circle cx="668" cy="268" r="2.35" />
  <circle cx="716" cy="268" r="2.35" />
  <circle cx="724" cy="268" r="2.35" />
  <circle cx="796" cy="268" r="2.35" />
  <circle cx="804" cy="268" r="2.35" />
  <circle cx="836" cy="268" r="2.35" />
  <circle cx="844" cy="268" r="2.35" />
  <circle cx="908" cy="268" r="2.35" />
  <circle cx="916" cy="268" r="2.35" />
  <circle cx="4" cy="276" r="2.35" />
  <circle cx="12" cy="276" r="2.35" />
  <circle cx="100" cy="276" r="2.35" />
  <circle cx="108" cy="276" r="2.35" />
  <circle cx="140" cy="276" r="2.35" />
  <circle cx="148" cy="276" r="2.35" />
  <circle cx="220" cy="276" r="2.35" />
  <circle cx="228" cy="276" r="2.35" />
  <circle cx="268" cy="276" r="2.35" />
  <circle cx="276" cy="276" r="2.35" />
  <circle cx="332" cy="276" r="2.35" />
  <circle cx="340" cy="276" r="2.35" />
  <circle cx="412" cy="276" r="2.35" />
  <circle cx="420" cy="276" r="2.35" />
  <circle cx="444" cy="276" r="2.35" />
  <circle cx="452" cy="276" r="2.35" />
  <circle cx="572" cy="276" r="2.35" />
  <circle cx="580" cy="276" r="2.35" />
  <circle cx="660" cy="276" r="2.35" />
  <circle cx="668" cy="276" r="2.35" />
  <circle cx="716" cy="276" r="2.35" />
  <circle cx="724" cy="276" r="2.35" />
  <circle cx="796" cy="276" r="2.35" />
  <circle cx="804" cy="276" r="2.35" />
  <circle cx="836" cy="276" r="2.35" />
  <circle cx="844" cy="276" r="2.35" />
  <circle cx="908" cy="276" r="2.35" />
  <circle cx="916" cy="276" r="2.35" />
  <circle cx="4" cy="284" r="2.35" />
  <circle cx="12" cy="284" r="2.35" />
  <circle cx="100" cy="284" r="2.35" />
  <circle cx="108" cy="284" r="2.35" />
  <circle cx="140" cy="284" r="2.35" />
  <circle cx="148" cy="284" r="2.35" />
  <circle cx="156" cy="284" r="2.35" />
  <circle cx="164" cy="284" r="2.35" />
  <circle cx="172" cy="284" r="2.35" />
  <circle cx="180" cy="284" r="2.35" />
  <circle cx="188" cy="284" r="2.35" />
  <circle cx="196" cy="284" r="2.35" />
  <circle cx="204" cy="284" r="2.35" />
  <circle cx="212" cy="284" r="2.35" />
  <circle cx="220" cy="284" r="2.35" />
  <circle cx="228" cy="284" r="2.35" />
  <circle cx="268" cy="284" r="2.35" />
  <circle cx="276" cy="284" r="2.35" />
  <circle cx="332" cy="284" r="2.35" />
  <circle cx="340" cy="284" r="2.35" />
  <circle cx="348" cy="284" r="2.35" />
  <circle cx="356" cy="284" r="2.35" />
  <circle cx="364" cy="284" r="2.35" />
  <circle cx="372" cy="284" r="2.35" />
  <circle cx="380" cy="284" r="2.35" />
  <circle cx="388" cy="284" r="2.35" />
  <circle cx="396" cy="284" r="2.35" />
  <circle cx="404" cy="284" r="2.35" />
  <circle cx="412" cy="284" r="2.35" />
  <circle cx="420" cy="284" r="2.35" />
  <circle cx="444" cy="284" r="2.35" />
  <circle cx="452" cy="284" r="2.35" />
  <circle cx="572" cy="284" r="2.35" />
  <circle cx="580" cy="284" r="2.35" />
  <circle cx="660" cy="284" r="2.35" />
  <circle cx="668" cy="284" r="2.35" />
  <circle cx="716" cy="284" r="2.35" />
  <circle cx="724" cy="284" r="2.35" />
  <circle cx="796" cy="284" r="2.35" />
  <circle cx="804" cy="284" r="2.35" />
  <circle cx="836" cy="284" r="2.35" />
  <circle cx="844" cy="284" r="2.35" />
  <circle cx="908" cy="284" r="2.35" />
  <circle cx="916" cy="284" r="2.35" />
  <circle cx="4" cy="292" r="2.35" />
  <circle cx="12" cy="292" r="2.35" />
  <circle cx="100" cy="292" r="2.35" />
  <circle cx="108" cy="292" r="2.35" />
  <circle cx="140" cy="292" r="2.35" />
  <circle cx="148" cy="292" r="2.35" />
  <circle cx="156" cy="292" r="2.35" />
  <circle cx="164" cy="292" r="2.35" />
  <circle cx="172" cy="292" r="2.35" />
  <circle cx="180" cy="292" r="2.35" />
  <circle cx="188" cy="292" r="2.35" />
  <circle cx="196" cy="292" r="2.35" />
  <circle cx="204" cy="292" r="2.35" />
  <circle cx="212" cy="292" r="2.35" />
  <circle cx="220" cy="292" r="2.35" />
  <circle cx="228" cy="292" r="2.35" />
  <circle cx="268" cy="292" r="2.35" />
  <circle cx="276" cy="292" r="2.35" />
  <circle cx="332" cy="292" r="2.35" />
  <circle cx="340" cy="292" r="2.35" />
  <circle cx="348" cy="292" r="2.35" />
  <circle cx="356" cy="292" r="2.35" />
  <circle cx="364" cy="292" r="2.35" />
  <circle cx="372" cy="292" r="2.35" />
  <circle cx="380" cy="292" r="2.35" />
  <circle cx="388" cy="292" r="2.35" />
  <circle cx="396" cy="292" r="2.35" />
  <circle cx="404" cy="292" r="2.35" />
  <circle cx="412" cy="292" r="2.35" />
  <circle cx="420" cy="292" r="2.35" />
  <circle cx="444" cy="292" r="2.35" />
  <circle cx="452" cy="292" r="2.35" />
  <circle cx="572" cy="292" r="2.35" />
  <circle cx="580" cy="292" r="2.35" />
  <circle cx="660" cy="292" r="2.35" />
  <circle cx="668" cy="292" r="2.35" />
  <circle cx="716" cy="292" r="2.35" />
  <circle cx="724" cy="292" r="2.35" />
  <circle cx="796" cy="292" r="2.35" />
  <circle cx="804" cy="292" r="2.35" />
  <circle cx="836" cy="292" r="2.35" />
  <circle cx="844" cy="292" r="2.35" />
  <circle cx="908" cy="292" r="2.35" />
  <circle cx="916" cy="292" r="2.35" />
  <circle cx="4" cy="300" r="2.35" />
  <circle cx="12" cy="300" r="2.35" />
  <circle cx="92" cy="300" r="2.35" />
  <circle cx="100" cy="300" r="2.35" />
  <circle cx="140" cy="300" r="2.35" />
  <circle cx="148" cy="300" r="2.35" />
  <circle cx="268" cy="300" r="2.35" />
  <circle cx="276" cy="300" r="2.35" />
  <circle cx="332" cy="300" r="2.35" />
  <circle cx="340" cy="300" r="2.35" />
  <circle cx="444" cy="300" r="2.35" />
  <circle cx="452" cy="300" r="2.35" />
  <circle cx="572" cy="300" r="2.35" />
  <circle cx="580" cy="300" r="2.35" />
  <circle cx="660" cy="300" r="2.35" />
  <circle cx="668" cy="300" r="2.35" />
  <circle cx="716" cy="300" r="2.35" />
  <circle cx="724" cy="300" r="2.35" />
  <circle cx="796" cy="300" r="2.35" />
  <circle cx="804" cy="300" r="2.35" />
  <circle cx="836" cy="300" r="2.35" />
  <circle cx="844" cy="300" r="2.35" />
  <circle cx="908" cy="300" r="2.35" />
  <circle cx="916" cy="300" r="2.35" />
  <circle cx="4" cy="308" r="2.35" />
  <circle cx="12" cy="308" r="2.35" />
  <circle cx="92" cy="308" r="2.35" />
  <circle cx="100" cy="308" r="2.35" />
  <circle cx="140" cy="308" r="2.35" />
  <circle cx="148" cy="308" r="2.35" />
  <circle cx="268" cy="308" r="2.35" />
  <circle cx="276" cy="308" r="2.35" />
  <circle cx="332" cy="308" r="2.35" />
  <circle cx="340" cy="308" r="2.35" />
  <circle cx="444" cy="308" r="2.35" />
  <circle cx="452" cy="308" r="2.35" />
  <circle cx="524" cy="308" r="2.35" />
  <circle cx="532" cy="308" r="2.35" />
  <circle cx="572" cy="308" r="2.35" />
  <circle cx="580" cy="308" r="2.35" />
  <circle cx="660" cy="308" r="2.35" />
  <circle cx="668" cy="308" r="2.35" />
  <circle cx="716" cy="308" r="2.35" />
  <circle cx="724" cy="308" r="2.35" />
  <circle cx="796" cy="308" r="2.35" />
  <circle cx="804" cy="308" r="2.35" />
  <circle cx="836" cy="308" r="2.35" />
  <circle cx="844" cy="308" r="2.35" />
  <circle cx="908" cy="308" r="2.35" />
  <circle cx="916" cy="308" r="2.35" />
  <circle cx="4" cy="316" r="2.35" />
  <circle cx="12" cy="316" r="2.35" />
  <circle cx="84" cy="316" r="2.35" />
  <circle cx="92" cy="316" r="2.35" />
  <circle cx="148" cy="316" r="2.35" />
  <circle cx="156" cy="316" r="2.35" />
  <circle cx="220" cy="316" r="2.35" />
  <circle cx="228" cy="316" r="2.35" />
  <circle cx="268" cy="316" r="2.35" />
  <circle cx="276" cy="316" r="2.35" />
  <circle cx="340" cy="316" r="2.35" />
  <circle cx="348" cy="316" r="2.35" />
  <circle cx="412" cy="316" r="2.35" />
  <circle cx="420" cy="316" r="2.35" />
  <circle cx="452" cy="316" r="2.35" />
  <circle cx="460" cy="316" r="2.35" />
  <circle cx="516" cy="316" r="2.35" />
  <circle cx="524" cy="316" r="2.35" />
  <circle cx="532" cy="316" r="2.35" />
  <circle cx="572" cy="316" r="2.35" />
  <circle cx="580" cy="316" r="2.35" />
  <circle cx="660" cy="316" r="2.35" />
  <circle cx="668" cy="316" r="2.35" />
  <circle cx="724" cy="316" r="2.35" />
  <circle cx="732" cy="316" r="2.35" />
  <circle cx="788" cy="316" r="2.35" />
  <circle cx="796" cy="316" r="2.35" />
  <circle cx="836" cy="316" r="2.35" />
  <circle cx="844" cy="316" r="2.35" />
  <circle cx="908" cy="316" r="2.35" />
  <circle cx="916" cy="316" r="2.35" />
  <circle cx="4" cy="324" r="2.35" />
  <circle cx="12" cy="324" r="2.35" />
  <circle cx="76" cy="324" r="2.35" />
  <circle cx="84" cy="324" r="2.35" />
  <circle cx="92" cy="324" r="2.35" />
  <circle cx="148" cy="324" r="2.35" />
  <circle cx="156" cy="324" r="2.35" />
  <circle cx="164" cy="324" r="2.35" />
  <circle cx="212" cy="324" r="2.35" />
  <circle cx="220" cy="324" r="2.35" />
  <circle cx="228" cy="324" r="2.35" />
  <circle cx="268" cy="324" r="2.35" />
  <circle cx="276" cy="324" r="2.35" />
  <circle cx="340" cy="324" r="2.35" />
  <circle cx="348" cy="324" r="2.35" />
  <circle cx="356" cy="324" r="2.35" />
  <circle cx="404" cy="324" r="2.35" />
  <circle cx="412" cy="324" r="2.35" />
  <circle cx="420" cy="324" r="2.35" />
  <circle cx="452" cy="324" r="2.35" />
  <circle cx="460" cy="324" r="2.35" />
  <circle cx="468" cy="324" r="2.35" />
  <circle cx="508" cy="324" r="2.35" />
  <circle cx="516" cy="324" r="2.35" />
  <circle cx="524" cy="324" r="2.35" />
  <circle cx="572" cy="324" r="2.35" />
  <circle cx="580" cy="324" r="2.35" />
  <circle cx="660" cy="324" r="2.35" />
  <circle cx="668" cy="324" r="2.35" />
  <circle cx="724" cy="324" r="2.35" />
  <circle cx="732" cy="324" r="2.35" />
  <circle cx="740" cy="324" r="2.35" />
  <circle cx="780" cy="324" r="2.35" />
  <circle cx="788" cy="324" r="2.35" />
  <circle cx="796" cy="324" r="2.35" />
  <circle cx="836" cy="324" r="2.35" />
  <circle cx="844" cy="324" r="2.35" />
  <circle cx="908" cy="324" r="2.35" />
  <circle cx="916" cy="324" r="2.35" />
  <circle cx="4" cy="332" r="2.35" />
  <circle cx="12" cy="332" r="2.35" />
  <circle cx="20" cy="332" r="2.35" />
  <circle cx="28" cy="332" r="2.35" />
  <circle cx="36" cy="332" r="2.35" />
  <circle cx="44" cy="332" r="2.35" />
  <circle cx="52" cy="332" r="2.35" />
  <circle cx="60" cy="332" r="2.35" />
  <circle cx="68" cy="332" r="2.35" />
  <circle cx="76" cy="332" r="2.35" />
  <circle cx="84" cy="332" r="2.35" />
  <circle cx="156" cy="332" r="2.35" />
  <circle cx="164" cy="332" r="2.35" />
  <circle cx="172" cy="332" r="2.35" />
  <circle cx="180" cy="332" r="2.35" />
  <circle cx="188" cy="332" r="2.35" />
  <circle cx="196" cy="332" r="2.35" />
  <circle cx="204" cy="332" r="2.35" />
  <circle cx="212" cy="332" r="2.35" />
  <circle cx="220" cy="332" r="2.35" />
  <circle cx="276" cy="332" r="2.35" />
  <circle cx="284" cy="332" r="2.35" />
  <circle cx="292" cy="332" r="2.35" />
  <circle cx="300" cy="332" r="2.35" />
  <circle cx="308" cy="332" r="2.35" />
  <circle cx="348" cy="332" r="2.35" />
  <circle cx="356" cy="332" r="2.35" />
  <circle cx="364" cy="332" r="2.35" />
  <circle cx="372" cy="332" r="2.35" />
  <circle cx="380" cy="332" r="2.35" />
  <circle cx="388" cy="332" r="2.35" />
  <circle cx="396" cy="332" r="2.35" />
  <circle cx="404" cy="332" r="2.35" />
  <circle cx="412" cy="332" r="2.35" />
  <circle cx="460" cy="332" r="2.35" />
  <circle cx="468" cy="332" r="2.35" />
  <circle cx="476" cy="332" r="2.35" />
  <circle cx="484" cy="332" r="2.35" />
  <circle cx="492" cy="332" r="2.35" />
  <circle cx="500" cy="332" r="2.35" />
  <circle cx="508" cy="332" r="2.35" />
  <circle cx="516" cy="332" r="2.35" />
  <circle cx="580" cy="332" r="2.35" />
  <circle cx="588" cy="332" r="2.35" />
  <circle cx="596" cy="332" r="2.35" />
  <circle cx="604" cy="332" r="2.35" />
  <circle cx="612" cy="332" r="2.35" />
  <circle cx="636" cy="332" r="2.35" />
  <circle cx="644" cy="332" r="2.35" />
  <circle cx="652" cy="332" r="2.35" />
  <circle cx="660" cy="332" r="2.35" />
  <circle cx="668" cy="332" r="2.35" />
  <circle cx="676" cy="332" r="2.35" />
  <circle cx="684" cy="332" r="2.35" />
  <circle cx="692" cy="332" r="2.35" />
  <circle cx="732" cy="332" r="2.35" />
  <circle cx="740" cy="332" r="2.35" />
  <circle cx="748" cy="332" r="2.35" />
  <circle cx="756" cy="332" r="2.35" />
  <circle cx="764" cy="332" r="2.35" />
  <circle cx="772" cy="332" r="2.35" />
  <circle cx="780" cy="332" r="2.35" />
  <circle cx="788" cy="332" r="2.35" />
  <circle cx="836" cy="332" r="2.35" />
  <circle cx="844" cy="332" r="2.35" />
  <circle cx="908" cy="332" r="2.35" />
  <circle cx="916" cy="332" r="2.35" />
  <circle cx="4" cy="340" r="2.35" />
  <circle cx="12" cy="340" r="2.35" />
  <circle cx="20" cy="340" r="2.35" />
  <circle cx="28" cy="340" r="2.35" />
  <circle cx="36" cy="340" r="2.35" />
  <circle cx="44" cy="340" r="2.35" />
  <circle cx="52" cy="340" r="2.35" />
  <circle cx="60" cy="340" r="2.35" />
  <circle cx="68" cy="340" r="2.35" />
  <circle cx="164" cy="340" r="2.35" />
  <circle cx="172" cy="340" r="2.35" />
  <circle cx="180" cy="340" r="2.35" />
  <circle cx="188" cy="340" r="2.35" />
  <circle cx="196" cy="340" r="2.35" />
  <circle cx="204" cy="340" r="2.35" />
  <circle cx="284" cy="340" r="2.35" />
  <circle cx="292" cy="340" r="2.35" />
  <circle cx="300" cy="340" r="2.35" />
  <circle cx="308" cy="340" r="2.35" />
  <circle cx="356" cy="340" r="2.35" />
  <circle cx="364" cy="340" r="2.35" />
  <circle cx="372" cy="340" r="2.35" />
  <circle cx="380" cy="340" r="2.35" />
  <circle cx="388" cy="340" r="2.35" />
  <circle cx="396" cy="340" r="2.35" />
  <circle cx="468" cy="340" r="2.35" />
  <circle cx="476" cy="340" r="2.35" />
  <circle cx="484" cy="340" r="2.35" />
  <circle cx="492" cy="340" r="2.35" />
  <circle cx="500" cy="340" r="2.35" />
  <circle cx="508" cy="340" r="2.35" />
  <circle cx="588" cy="340" r="2.35" />
  <circle cx="596" cy="340" r="2.35" />
  <circle cx="604" cy="340" r="2.35" />
  <circle cx="612" cy="340" r="2.35" />
  <circle cx="636" cy="340" r="2.35" />
  <circle cx="644" cy="340" r="2.35" />
  <circle cx="652" cy="340" r="2.35" />
  <circle cx="660" cy="340" r="2.35" />
  <circle cx="668" cy="340" r="2.35" />
  <circle cx="676" cy="340" r="2.35" />
  <circle cx="684" cy="340" r="2.35" />
  <circle cx="692" cy="340" r="2.35" />
  <circle cx="740" cy="340" r="2.35" />
  <circle cx="748" cy="340" r="2.35" />
  <circle cx="756" cy="340" r="2.35" />
  <circle cx="764" cy="340" r="2.35" />
  <circle cx="772" cy="340" r="2.35" />
  <circle cx="780" cy="340" r="2.35" />
  <circle cx="836" cy="340" r="2.35" />
  <circle cx="844" cy="340" r="2.35" />
  <circle cx="908" cy="340" r="2.35" />
  <circle cx="916" cy="340" r="2.35" />
  </g>
</svg>
